<mxfile host="app.diagrams.net" modified="2023-08-29T02:14:12.152Z" agent="Mozilla/5.0 (Windows NT 10.0; Win64; x64) AppleWebKit/537.36 (KHTML, like Gecko) Chrome/115.0.0.0 Safari/537.36" etag="qln11o2f5Eem8OTP-AO9" version="21.6.9" type="device">
  <diagram name="페이지-1" id="7Ij8uKjP76WhhLE6ZRci">
    <mxGraphModel dx="2876" dy="2298" grid="1" gridSize="10" guides="1" tooltips="1" connect="1" arrows="1" fold="1" page="1" pageScale="1" pageWidth="827" pageHeight="1169" background="#FFFFFF" math="0" shadow="0">
      <root>
        <mxCell id="0" />
        <mxCell id="1" parent="0" />
        <mxCell id="FlCNs_IBPol1UIJCw7tp-71" value="" style="rounded=0;whiteSpace=wrap;html=1;strokeColor=#ffffff;" parent="1" vertex="1">
          <mxGeometry x="-827" y="-1169" width="1110" height="1249" as="geometry" />
        </mxCell>
        <mxCell id="FlCNs_IBPol1UIJCw7tp-15" style="edgeStyle=orthogonalEdgeStyle;rounded=0;orthogonalLoop=1;jettySize=auto;html=1;entryX=0.5;entryY=0;entryDx=0;entryDy=0;strokeWidth=3;" parent="1" source="FlCNs_IBPol1UIJCw7tp-10" target="FlCNs_IBPol1UIJCw7tp-13" edge="1">
          <mxGeometry relative="1" as="geometry" />
        </mxCell>
        <mxCell id="FlCNs_IBPol1UIJCw7tp-10" value="Recv Packet" style="shape=parallelogram;perimeter=parallelogramPerimeter;whiteSpace=wrap;html=1;fixedSize=1;aspect=fixed;strokeWidth=2;fontStyle=1" parent="1" vertex="1">
          <mxGeometry x="-7" y="-1120" width="124" height="91" as="geometry" />
        </mxCell>
        <mxCell id="FlCNs_IBPol1UIJCw7tp-58" value="CmdType_TIFD" style="edgeStyle=orthogonalEdgeStyle;rounded=0;orthogonalLoop=1;jettySize=auto;html=1;entryX=0.5;entryY=0;entryDx=0;entryDy=0;fontStyle=1;fontSize=12;strokeWidth=3;exitX=0.5;exitY=1;exitDx=0;exitDy=0;" parent="1" source="FlCNs_IBPol1UIJCw7tp-13" target="FlCNs_IBPol1UIJCw7tp-23" edge="1">
          <mxGeometry x="0.4954" relative="1" as="geometry">
            <Array as="points">
              <mxPoint x="55" y="-930" />
              <mxPoint x="53" y="-930" />
              <mxPoint x="53" y="-860" />
            </Array>
            <mxPoint as="offset" />
          </mxGeometry>
        </mxCell>
        <mxCell id="FlCNs_IBPol1UIJCw7tp-13" value="Cmd_Type&lt;br style=&quot;font-size: 14px;&quot;&gt;CHeck" style="rhombus;whiteSpace=wrap;html=1;aspect=fixed;strokeWidth=2;fontStyle=1;fontSize=14;" parent="1" vertex="1">
          <mxGeometry x="2" y="-980" width="105" height="100" as="geometry" />
        </mxCell>
        <mxCell id="FlCNs_IBPol1UIJCw7tp-35" style="edgeStyle=orthogonalEdgeStyle;rounded=0;orthogonalLoop=1;jettySize=auto;html=1;exitX=0;exitY=0.5;exitDx=0;exitDy=0;entryX=1;entryY=0.5;entryDx=0;entryDy=0;fontStyle=1;strokeWidth=3;" parent="1" source="FlCNs_IBPol1UIJCw7tp-21" target="FlCNs_IBPol1UIJCw7tp-31" edge="1">
          <mxGeometry relative="1" as="geometry" />
        </mxCell>
        <mxCell id="FlCNs_IBPol1UIJCw7tp-21" value="Handle Update Pending Info" style="rounded=0;whiteSpace=wrap;html=1;fontStyle=1;strokeWidth=2;fontSize=14;" parent="1" vertex="1">
          <mxGeometry x="4" y="-560" width="103" height="76" as="geometry" />
        </mxCell>
        <mxCell id="FlCNs_IBPol1UIJCw7tp-57" style="edgeStyle=orthogonalEdgeStyle;rounded=0;orthogonalLoop=1;jettySize=auto;html=1;exitX=0.5;exitY=1;exitDx=0;exitDy=0;entryX=0.5;entryY=0;entryDx=0;entryDy=0;fontStyle=1;fontColor=#000000;fillColor=#e51400;strokeColor=#ff2600;strokeWidth=3;" parent="1" source="FlCNs_IBPol1UIJCw7tp-23" target="FlCNs_IBPol1UIJCw7tp-26" edge="1">
          <mxGeometry relative="1" as="geometry" />
        </mxCell>
        <mxCell id="FlCNs_IBPol1UIJCw7tp-23" value="Is Pair?" style="rhombus;whiteSpace=wrap;html=1;aspect=fixed;fontStyle=1;strokeWidth=2;fontSize=14;" parent="1" vertex="1">
          <mxGeometry x="1" y="-819" width="105" height="100" as="geometry" />
        </mxCell>
        <mxCell id="FlCNs_IBPol1UIJCw7tp-34" style="edgeStyle=orthogonalEdgeStyle;rounded=0;orthogonalLoop=1;jettySize=auto;html=1;exitX=0.5;exitY=1;exitDx=0;exitDy=0;entryX=0.5;entryY=0;entryDx=0;entryDy=0;fontStyle=1;strokeWidth=3;" parent="1" source="FlCNs_IBPol1UIJCw7tp-26" target="FlCNs_IBPol1UIJCw7tp-21" edge="1">
          <mxGeometry relative="1" as="geometry" />
        </mxCell>
        <mxCell id="FlCNs_IBPol1UIJCw7tp-26" value="Device Type&lt;br style=&quot;font-size: 14px;&quot;&gt;Is TIFD?" style="rhombus;whiteSpace=wrap;html=1;aspect=fixed;fontStyle=1;strokeWidth=2;fontSize=14;" parent="1" vertex="1">
          <mxGeometry x="2" y="-690" width="105" height="100" as="geometry" />
        </mxCell>
        <mxCell id="FlCNs_IBPol1UIJCw7tp-36" style="edgeStyle=orthogonalEdgeStyle;rounded=0;orthogonalLoop=1;jettySize=auto;html=1;exitX=0.5;exitY=1;exitDx=0;exitDy=0;entryX=0.5;entryY=0;entryDx=0;entryDy=0;fontStyle=1;strokeWidth=3;" parent="1" source="FlCNs_IBPol1UIJCw7tp-31" target="FlCNs_IBPol1UIJCw7tp-33" edge="1">
          <mxGeometry relative="1" as="geometry" />
        </mxCell>
        <mxCell id="FlCNs_IBPol1UIJCw7tp-31" value="속도가 &lt;br style=&quot;font-size: 14px;&quot;&gt;최저 이상?" style="rhombus;whiteSpace=wrap;html=1;aspect=fixed;fontStyle=1;strokeWidth=2;fontSize=14;" parent="1" vertex="1">
          <mxGeometry x="-237" y="-572" width="105" height="100" as="geometry" />
        </mxCell>
        <mxCell id="FlCNs_IBPol1UIJCw7tp-32" value="&lt;p style=&quot;margin: 0px; padding: 0px; border: 0px none; line-height: 0px; overflow-wrap: break-word; font-family: Arial; font-size: 14px;&quot;&gt;&lt;span style=&quot;font-size: 14px;&quot;&gt;&lt;/span&gt;&lt;/p&gt;&lt;p style=&quot;margin: 0px; padding: 0px; border: 0px none; line-height: 0px; overflow-wrap: break-word; font-family: Arial; font-size: 14px;&quot;&gt;&lt;span style=&quot;font-size: 14px;&quot;&gt;&lt;/span&gt;&lt;/p&gt;&lt;p style=&quot;margin: 0px; padding: 0px; border: 0px none; line-height: 0px; overflow-wrap: break-word; font-family: Arial; font-size: 14px;&quot;&gt;&lt;span style=&quot;font-size: 14px;&quot;&gt;Disconnected&lt;/span&gt;&lt;/p&gt;&lt;p style=&quot;margin: 0px; padding: 0px; border: 0px none; line-height: 0px; overflow-wrap: break-word; font-family: Arial; font-size: 14px;&quot;&gt;&lt;span style=&quot;font-size: 14px;&quot;&gt;&lt;br style=&quot;font-size: 14px;&quot;&gt;&lt;/span&gt;&lt;/p&gt;" style="rounded=0;whiteSpace=wrap;html=1;fontStyle=1;strokeWidth=2;fontSize=14;" parent="1" vertex="1">
          <mxGeometry x="134" y="-560" width="103" height="76" as="geometry" />
        </mxCell>
        <mxCell id="FlCNs_IBPol1UIJCw7tp-38" style="edgeStyle=orthogonalEdgeStyle;rounded=0;orthogonalLoop=1;jettySize=auto;html=1;exitX=0.5;exitY=1;exitDx=0;exitDy=0;entryX=0.5;entryY=0;entryDx=0;entryDy=0;fontStyle=1;strokeWidth=3;" parent="1" source="FlCNs_IBPol1UIJCw7tp-33" target="FlCNs_IBPol1UIJCw7tp-37" edge="1">
          <mxGeometry relative="1" as="geometry" />
        </mxCell>
        <mxCell id="FlCNs_IBPol1UIJCw7tp-33" value="Checking Possible Tird" style="rounded=0;whiteSpace=wrap;html=1;fontStyle=1;strokeWidth=2;" parent="1" vertex="1">
          <mxGeometry x="-483" y="-398" width="103" height="76" as="geometry" />
        </mxCell>
        <mxCell id="FlCNs_IBPol1UIJCw7tp-48" style="edgeStyle=orthogonalEdgeStyle;rounded=0;orthogonalLoop=1;jettySize=auto;html=1;exitX=0.5;exitY=1;exitDx=0;exitDy=0;fontStyle=1;strokeWidth=3;" parent="1" source="FlCNs_IBPol1UIJCw7tp-37" target="FlCNs_IBPol1UIJCw7tp-40" edge="1">
          <mxGeometry relative="1" as="geometry" />
        </mxCell>
        <mxCell id="FlCNs_IBPol1UIJCw7tp-37" value="Possible List&lt;br&gt;순회(for)" style="rhombus;whiteSpace=wrap;html=1;aspect=fixed;fontStyle=1;strokeWidth=2;" parent="1" vertex="1">
          <mxGeometry x="-481" y="-300" width="105" height="100" as="geometry" />
        </mxCell>
        <mxCell id="FlCNs_IBPol1UIJCw7tp-39" value="Find Near Possible TIRD" style="rounded=0;whiteSpace=wrap;html=1;fontStyle=1;strokeWidth=2;" parent="1" vertex="1">
          <mxGeometry x="-784" y="-313" width="103" height="76" as="geometry" />
        </mxCell>
        <mxCell id="FlCNs_IBPol1UIJCw7tp-49" style="edgeStyle=orthogonalEdgeStyle;rounded=0;orthogonalLoop=1;jettySize=auto;html=1;exitX=0.5;exitY=1;exitDx=0;exitDy=0;entryX=0.5;entryY=0;entryDx=0;entryDy=0;fontStyle=1;strokeWidth=3;" parent="1" source="FlCNs_IBPol1UIJCw7tp-40" target="FlCNs_IBPol1UIJCw7tp-41" edge="1">
          <mxGeometry relative="1" as="geometry" />
        </mxCell>
        <mxCell id="FlCNs_IBPol1UIJCw7tp-40" value="is Start?" style="rhombus;whiteSpace=wrap;html=1;aspect=fixed;fontStyle=1;strokeWidth=2;" parent="1" vertex="1">
          <mxGeometry x="-481" y="-170" width="105" height="100" as="geometry" />
        </mxCell>
        <mxCell id="FlCNs_IBPol1UIJCw7tp-50" style="edgeStyle=orthogonalEdgeStyle;rounded=0;orthogonalLoop=1;jettySize=auto;html=1;exitX=1;exitY=0.5;exitDx=0;exitDy=0;entryX=0;entryY=0.5;entryDx=0;entryDy=0;fontStyle=1;strokeWidth=3;" parent="1" source="FlCNs_IBPol1UIJCw7tp-41" target="FlCNs_IBPol1UIJCw7tp-42" edge="1">
          <mxGeometry relative="1" as="geometry" />
        </mxCell>
        <mxCell id="FlCNs_IBPol1UIJCw7tp-41" value="길이 - 첫길이&lt;br&gt;&amp;lt; 정확도설정" style="rhombus;whiteSpace=wrap;html=1;aspect=fixed;fontStyle=1;strokeWidth=2;" parent="1" vertex="1">
          <mxGeometry x="-481" y="-40" width="105" height="100" as="geometry" />
        </mxCell>
        <mxCell id="FlCNs_IBPol1UIJCw7tp-51" style="edgeStyle=orthogonalEdgeStyle;rounded=0;orthogonalLoop=1;jettySize=auto;html=1;exitX=0.5;exitY=0;exitDx=0;exitDy=0;entryX=0.5;entryY=1;entryDx=0;entryDy=0;fontStyle=1;strokeWidth=3;" parent="1" target="FlCNs_IBPol1UIJCw7tp-44" edge="1">
          <mxGeometry relative="1" as="geometry">
            <mxPoint x="-255.5" y="-28" as="sourcePoint" />
          </mxGeometry>
        </mxCell>
        <mxCell id="FlCNs_IBPol1UIJCw7tp-42" value="Count +1" style="rounded=0;whiteSpace=wrap;fontStyle=1;strokeWidth=2;" parent="1" vertex="1">
          <mxGeometry x="-306" y="-28" width="103" height="76" as="geometry" />
        </mxCell>
        <mxCell id="FlCNs_IBPol1UIJCw7tp-52" style="edgeStyle=orthogonalEdgeStyle;rounded=0;orthogonalLoop=1;jettySize=auto;html=1;exitX=1;exitY=0.5;exitDx=0;exitDy=0;fontStyle=1;strokeWidth=3;entryX=0.5;entryY=1;entryDx=0;entryDy=0;" parent="1" source="FlCNs_IBPol1UIJCw7tp-44" target="FlCNs_IBPol1UIJCw7tp-73" edge="1">
          <mxGeometry relative="1" as="geometry">
            <mxPoint x="-255" y="-190" as="targetPoint" />
            <Array as="points">
              <mxPoint x="-167" y="-120" />
              <mxPoint x="-167" y="-50" />
              <mxPoint x="-59" y="-50" />
            </Array>
          </mxGeometry>
        </mxCell>
        <mxCell id="FlCNs_IBPol1UIJCw7tp-44" value="Count&lt;br&gt;&amp;gt;= Success" style="rhombus;whiteSpace=wrap;html=1;aspect=fixed;fontStyle=1;strokeWidth=2;" parent="1" vertex="1">
          <mxGeometry x="-308" y="-170" width="105" height="100" as="geometry" />
        </mxCell>
        <mxCell id="FlCNs_IBPol1UIJCw7tp-53" style="edgeStyle=orthogonalEdgeStyle;rounded=0;orthogonalLoop=1;jettySize=auto;html=1;exitX=0.5;exitY=0;exitDx=0;exitDy=0;entryX=0.5;entryY=1;entryDx=0;entryDy=0;fontStyle=1;strokeWidth=3;" parent="1" source="FlCNs_IBPol1UIJCw7tp-73" target="FlCNs_IBPol1UIJCw7tp-46" edge="1">
          <mxGeometry relative="1" as="geometry">
            <mxPoint x="-217.5" y="-168" as="sourcePoint" />
          </mxGeometry>
        </mxCell>
        <mxCell id="FlCNs_IBPol1UIJCw7tp-46" value="Send Pairing Packet to TIFD" style="rounded=0;whiteSpace=wrap;fontStyle=1;html=1;strokeWidth=2;" parent="1" vertex="1">
          <mxGeometry x="-110" y="-320" width="103" height="76" as="geometry" />
        </mxCell>
        <mxCell id="FlCNs_IBPol1UIJCw7tp-47" value="Send LORA_CH&lt;br&gt;Packet to TIFD, TIRD" style="rounded=0;whiteSpace=wrap;fontStyle=1;html=1;strokeWidth=2;" parent="1" vertex="1">
          <mxGeometry x="-110" y="-440" width="102.9" height="76" as="geometry" />
        </mxCell>
        <mxCell id="FlCNs_IBPol1UIJCw7tp-73" value="(TIM)&lt;br style=&quot;border-color: var(--border-color);&quot;&gt;&lt;span style=&quot;border-color: var(--border-color);&quot;&gt;Push Pairing&lt;br&gt;List&lt;/span&gt;" style="rhombus;whiteSpace=wrap;html=1;aspect=fixed;fontStyle=1;strokeWidth=2;" parent="1" vertex="1">
          <mxGeometry x="-110" y="-184" width="102.9" height="98" as="geometry" />
        </mxCell>
        <mxCell id="FlCNs_IBPol1UIJCw7tp-76" value="첫 길이 저장&lt;br&gt;및 isStart = true" style="rounded=0;whiteSpace=wrap;fontStyle=1;html=1;strokeWidth=2;" parent="1" vertex="1">
          <mxGeometry x="-644" y="-158" width="103" height="76" as="geometry" />
        </mxCell>
        <mxCell id="FlCNs_IBPol1UIJCw7tp-81" value="Possible List에서&lt;br&gt;삭제" style="rounded=0;whiteSpace=wrap;fontStyle=1;html=1;strokeWidth=2;" parent="1" vertex="1">
          <mxGeometry x="-287.9999999999998" y="-293" width="103" height="76" as="geometry" />
        </mxCell>
        <mxCell id="FlCNs_IBPol1UIJCw7tp-85" style="edgeStyle=orthogonalEdgeStyle;rounded=0;orthogonalLoop=1;jettySize=auto;html=1;exitX=0.5;exitY=0;exitDx=0;exitDy=0;entryX=0.5;entryY=1;entryDx=0;entryDy=0;fontStyle=1;strokeWidth=3;" parent="1" source="FlCNs_IBPol1UIJCw7tp-46" target="FlCNs_IBPol1UIJCw7tp-47" edge="1">
          <mxGeometry relative="1" as="geometry">
            <mxPoint x="-200" y="-350" as="sourcePoint" />
            <mxPoint x="-250" y="-350" as="targetPoint" />
          </mxGeometry>
        </mxCell>
        <mxCell id="FlCNs_IBPol1UIJCw7tp-86" style="edgeStyle=orthogonalEdgeStyle;rounded=0;orthogonalLoop=1;jettySize=auto;html=1;exitX=0;exitY=0.5;exitDx=0;exitDy=0;entryX=1;entryY=0.5;entryDx=0;entryDy=0;fontStyle=1;strokeWidth=3;strokeColor=#FC2821;" parent="1" source="FlCNs_IBPol1UIJCw7tp-73" target="FlCNs_IBPol1UIJCw7tp-81" edge="1">
          <mxGeometry relative="1" as="geometry">
            <mxPoint x="-77.99999999999977" y="-270" as="sourcePoint" />
            <mxPoint x="-277.9999999999998" y="-270" as="targetPoint" />
          </mxGeometry>
        </mxCell>
        <mxCell id="FlCNs_IBPol1UIJCw7tp-88" value="" style="ellipse;whiteSpace=wrap;html=1;strokeWidth=2;" parent="1" vertex="1">
          <mxGeometry x="-348" y="-265" width="30" height="30" as="geometry" />
        </mxCell>
        <mxCell id="FlCNs_IBPol1UIJCw7tp-90" style="orthogonalLoop=1;jettySize=auto;html=1;exitX=0;exitY=0.5;exitDx=0;exitDy=0;entryX=0.5;entryY=1;entryDx=0;entryDy=0;fontStyle=1;strokeWidth=3;rounded=0;edgeStyle=orthogonalEdgeStyle;endArrow=none;endFill=0;strokeColor=#ff0000;" parent="1" source="FlCNs_IBPol1UIJCw7tp-44" target="FlCNs_IBPol1UIJCw7tp-88" edge="1">
          <mxGeometry relative="1" as="geometry">
            <mxPoint x="-458" y="-280" as="sourcePoint" />
            <mxPoint x="-508" y="-280" as="targetPoint" />
          </mxGeometry>
        </mxCell>
        <mxCell id="FlCNs_IBPol1UIJCw7tp-91" style="edgeStyle=orthogonalEdgeStyle;rounded=0;orthogonalLoop=1;jettySize=auto;html=1;exitX=0;exitY=0.5;exitDx=0;exitDy=0;fontStyle=1;strokeWidth=3;endArrow=none;endFill=0;" parent="1" edge="1">
          <mxGeometry relative="1" as="geometry">
            <mxPoint x="-287.99999999999955" y="-250.07999999999998" as="sourcePoint" />
            <mxPoint x="-318" y="-250.07999999999998" as="targetPoint" />
            <Array as="points">
              <mxPoint x="-318" y="-250.07999999999998" />
            </Array>
          </mxGeometry>
        </mxCell>
        <mxCell id="FlCNs_IBPol1UIJCw7tp-92" style="edgeStyle=orthogonalEdgeStyle;rounded=0;orthogonalLoop=1;jettySize=auto;html=1;exitX=0;exitY=0.5;exitDx=0;exitDy=0;fontStyle=1;strokeWidth=3;entryX=1;entryY=0.5;entryDx=0;entryDy=0;" parent="1" source="FlCNs_IBPol1UIJCw7tp-88" target="FlCNs_IBPol1UIJCw7tp-37" edge="1">
          <mxGeometry relative="1" as="geometry">
            <mxPoint x="-378" y="-300" as="sourcePoint" />
            <mxPoint x="-368" y="-250" as="targetPoint" />
          </mxGeometry>
        </mxCell>
        <mxCell id="FlCNs_IBPol1UIJCw7tp-93" style="edgeStyle=orthogonalEdgeStyle;rounded=0;orthogonalLoop=1;jettySize=auto;html=1;exitX=0;exitY=0.5;exitDx=0;exitDy=0;entryX=1;entryY=0.5;entryDx=0;entryDy=0;fontStyle=1;strokeWidth=3;fillColor=#e51400;strokeColor=#FC2821;" parent="1" source="FlCNs_IBPol1UIJCw7tp-40" target="FlCNs_IBPol1UIJCw7tp-76" edge="1">
          <mxGeometry relative="1" as="geometry">
            <mxPoint x="-478" y="-140" as="sourcePoint" />
            <mxPoint x="-528" y="-140" as="targetPoint" />
          </mxGeometry>
        </mxCell>
        <mxCell id="FlCNs_IBPol1UIJCw7tp-94" style="edgeStyle=orthogonalEdgeStyle;rounded=0;orthogonalLoop=1;jettySize=auto;html=1;exitX=0;exitY=0.5;exitDx=0;exitDy=0;entryX=1;entryY=0.5;entryDx=0;entryDy=0;fontStyle=1;strokeWidth=3;strokeColor=#FC2821;" parent="1" source="FlCNs_IBPol1UIJCw7tp-41" edge="1">
          <mxGeometry relative="1" as="geometry">
            <mxPoint x="-471" y="-110" as="sourcePoint" />
            <mxPoint x="-540.9999999999995" y="10" as="targetPoint" />
          </mxGeometry>
        </mxCell>
        <mxCell id="FlCNs_IBPol1UIJCw7tp-95" value="Possible List에서&lt;br&gt;삭제" style="rounded=0;whiteSpace=wrap;fontStyle=1;html=1;strokeWidth=2;" parent="1" vertex="1">
          <mxGeometry x="-643.9999999999998" y="-28" width="103" height="76" as="geometry" />
        </mxCell>
        <mxCell id="FlCNs_IBPol1UIJCw7tp-96" value="" style="ellipse;whiteSpace=wrap;html=1;strokeWidth=2;" parent="1" vertex="1">
          <mxGeometry x="-638" y="-290" width="30" height="30" as="geometry" />
        </mxCell>
        <mxCell id="FlCNs_IBPol1UIJCw7tp-97" style="orthogonalLoop=1;jettySize=auto;html=1;entryX=1;entryY=0.5;entryDx=0;entryDy=0;fontStyle=1;strokeWidth=3;rounded=0;edgeStyle=orthogonalEdgeStyle;endArrow=none;endFill=0;strokeColor=#ff0000;exitX=0;exitY=0;exitDx=0;exitDy=0;" parent="1" source="FlCNs_IBPol1UIJCw7tp-37" target="FlCNs_IBPol1UIJCw7tp-96" edge="1">
          <mxGeometry relative="1" as="geometry">
            <mxPoint x="-543" y="-225" as="sourcePoint" />
            <mxPoint x="-568" y="-340" as="targetPoint" />
          </mxGeometry>
        </mxCell>
        <mxCell id="FlCNs_IBPol1UIJCw7tp-98" style="orthogonalLoop=1;jettySize=auto;html=1;exitX=0.5;exitY=0;exitDx=0;exitDy=0;entryX=0;entryY=0.5;entryDx=0;entryDy=0;fontStyle=1;strokeWidth=3;rounded=0;edgeStyle=orthogonalEdgeStyle;endArrow=none;endFill=0;strokeColor=#ff0000;" parent="1" source="FlCNs_IBPol1UIJCw7tp-96" target="FlCNs_IBPol1UIJCw7tp-31" edge="1">
          <mxGeometry relative="1" as="geometry">
            <mxPoint x="-593" y="-315" as="sourcePoint" />
            <mxPoint x="-618" y="-430" as="targetPoint" />
            <Array as="points">
              <mxPoint x="-623" y="-520" />
              <mxPoint x="-237" y="-520" />
            </Array>
          </mxGeometry>
        </mxCell>
        <mxCell id="FlCNs_IBPol1UIJCw7tp-99" style="edgeStyle=orthogonalEdgeStyle;rounded=0;orthogonalLoop=1;jettySize=auto;html=1;exitX=0;exitY=0.5;exitDx=0;exitDy=0;fontStyle=1;strokeWidth=3;entryX=1;entryY=0.5;entryDx=0;entryDy=0;" parent="1" source="FlCNs_IBPol1UIJCw7tp-96" target="FlCNs_IBPol1UIJCw7tp-39" edge="1">
          <mxGeometry relative="1" as="geometry">
            <mxPoint x="-628" y="-270" as="sourcePoint" />
            <mxPoint x="-678" y="-270" as="targetPoint" />
          </mxGeometry>
        </mxCell>
        <mxCell id="FlCNs_IBPol1UIJCw7tp-100" value="" style="ellipse;whiteSpace=wrap;html=1;strokeWidth=2;" parent="1" vertex="1">
          <mxGeometry x="-568" y="-265" width="30" height="30" as="geometry" />
        </mxCell>
        <mxCell id="FlCNs_IBPol1UIJCw7tp-101" style="edgeStyle=orthogonalEdgeStyle;rounded=0;orthogonalLoop=1;jettySize=auto;html=1;exitX=1;exitY=0.5;exitDx=0;exitDy=0;entryX=0;entryY=0.5;entryDx=0;entryDy=0;fontStyle=1;strokeWidth=3;" parent="1" source="FlCNs_IBPol1UIJCw7tp-100" target="FlCNs_IBPol1UIJCw7tp-37" edge="1">
          <mxGeometry relative="1" as="geometry">
            <mxPoint x="-578" y="-190" as="sourcePoint" />
            <mxPoint x="-628" y="-190" as="targetPoint" />
          </mxGeometry>
        </mxCell>
        <mxCell id="FlCNs_IBPol1UIJCw7tp-103" style="edgeStyle=orthogonalEdgeStyle;rounded=0;orthogonalLoop=1;jettySize=auto;html=1;exitX=0.5;exitY=0;exitDx=0;exitDy=0;fontStyle=1;strokeWidth=3;endArrow=none;endFill=0;entryX=0.5;entryY=1;entryDx=0;entryDy=0;" parent="1" source="FlCNs_IBPol1UIJCw7tp-76" target="FlCNs_IBPol1UIJCw7tp-100" edge="1">
          <mxGeometry relative="1" as="geometry">
            <mxPoint x="-607.9999999999995" y="-210.00000000000006" as="sourcePoint" />
            <mxPoint x="-638" y="-210.00000000000006" as="targetPoint" />
            <Array as="points">
              <mxPoint x="-592" y="-200" />
              <mxPoint x="-553" y="-200" />
            </Array>
          </mxGeometry>
        </mxCell>
        <mxCell id="FlCNs_IBPol1UIJCw7tp-104" style="edgeStyle=orthogonalEdgeStyle;rounded=0;orthogonalLoop=1;jettySize=auto;html=1;exitX=0;exitY=0.5;exitDx=0;exitDy=0;fontStyle=1;strokeWidth=3;endArrow=none;endFill=0;entryX=0;entryY=0.5;entryDx=0;entryDy=0;" parent="1" source="FlCNs_IBPol1UIJCw7tp-95" target="FlCNs_IBPol1UIJCw7tp-100" edge="1">
          <mxGeometry relative="1" as="geometry">
            <mxPoint x="-677.9999999999995" y="-40.00000000000006" as="sourcePoint" />
            <mxPoint x="-708" y="-40.00000000000006" as="targetPoint" />
            <Array as="points">
              <mxPoint x="-668" y="10" />
              <mxPoint x="-668" y="-250" />
            </Array>
          </mxGeometry>
        </mxCell>
        <mxCell id="mwJyTNDDtB5qL9PiFzt8-1" style="edgeStyle=orthogonalEdgeStyle;rounded=0;orthogonalLoop=1;jettySize=auto;html=1;exitX=1;exitY=0.5;exitDx=0;exitDy=0;entryX=0.5;entryY=0;entryDx=0;entryDy=0;fontStyle=1;strokeWidth=3;strokeColor=#FC2821;" parent="1" source="FlCNs_IBPol1UIJCw7tp-26" target="FlCNs_IBPol1UIJCw7tp-32" edge="1">
          <mxGeometry relative="1" as="geometry">
            <mxPoint x="373.0000000000002" y="-660" as="sourcePoint" />
            <mxPoint x="173.00000000000023" y="-660" as="targetPoint" />
          </mxGeometry>
        </mxCell>
        <mxCell id="mwJyTNDDtB5qL9PiFzt8-2" style="edgeStyle=orthogonalEdgeStyle;rounded=0;orthogonalLoop=1;jettySize=auto;html=1;exitX=0;exitY=0.5;exitDx=0;exitDy=0;entryX=1;entryY=0.5;entryDx=0;entryDy=0;fontStyle=1;strokeWidth=3;" parent="1" source="FlCNs_IBPol1UIJCw7tp-23" target="mwJyTNDDtB5qL9PiFzt8-3" edge="1">
          <mxGeometry relative="1" as="geometry">
            <mxPoint x="-117" y="-760" as="sourcePoint" />
            <mxPoint x="-167" y="-760" as="targetPoint" />
            <Array as="points" />
          </mxGeometry>
        </mxCell>
        <mxCell id="mwJyTNDDtB5qL9PiFzt8-3" value="Handle&lt;br style=&quot;font-size: 14px;&quot;&gt;Pairing Info" style="rounded=0;whiteSpace=wrap;fontStyle=1;html=1;strokeWidth=2;fontSize=14;" parent="1" vertex="1">
          <mxGeometry x="-131.99999999999977" y="-807" width="103" height="76" as="geometry" />
        </mxCell>
        <mxCell id="mwJyTNDDtB5qL9PiFzt8-4" value="Else" style="edgeStyle=orthogonalEdgeStyle;rounded=0;orthogonalLoop=1;jettySize=auto;html=1;exitX=1;exitY=0.5;exitDx=0;exitDy=0;entryX=0.5;entryY=0;entryDx=0;entryDy=0;fontStyle=1;strokeWidth=3;strokeColor=#FC2821;fontSize=12;" parent="1" source="FlCNs_IBPol1UIJCw7tp-13" target="FlCNs_IBPol1UIJCw7tp-32" edge="1">
          <mxGeometry x="-0.3377" relative="1" as="geometry">
            <mxPoint x="353.0000000000002" y="-890" as="sourcePoint" />
            <mxPoint x="153.00000000000023" y="-890" as="targetPoint" />
            <mxPoint as="offset" />
          </mxGeometry>
        </mxCell>
        <mxCell id="mwJyTNDDtB5qL9PiFzt8-7" value="TrainStatus == OpenAlram&lt;br style=&quot;font-size: 15px;&quot;&gt;_Request" style="rhombus;whiteSpace=wrap;html=1;aspect=fixed;fontStyle=1;strokeWidth=2;fontSize=15;" parent="1" vertex="1">
          <mxGeometry x="-510" y="-847.5699999999999" width="165" height="157.14" as="geometry" />
        </mxCell>
        <mxCell id="mwJyTNDDtB5qL9PiFzt8-12" value="(TIM)&lt;br style=&quot;font-size: 14px;&quot;&gt;Update Pair &lt;br style=&quot;font-size: 14px;&quot;&gt;With Tifd" style="rounded=0;whiteSpace=wrap;fontStyle=1;html=1;strokeWidth=2;fontSize=14;" parent="1" vertex="1">
          <mxGeometry x="-653.2499999999998" y="-666" width="103" height="76" as="geometry" />
        </mxCell>
        <mxCell id="Ct8HjF7NkuFXoSBndfX9-1" value="distance - trainLength &amp;gt;=&lt;br style=&quot;font-size: 14px;&quot;&gt;CheckDistance" style="rhombus;whiteSpace=wrap;html=1;aspect=fixed;fontStyle=1;strokeWidth=2;fontSize=14;" parent="1" vertex="1">
          <mxGeometry x="-303.95" y="-838.5" width="145.95" height="139" as="geometry" />
        </mxCell>
        <mxCell id="Ct8HjF7NkuFXoSBndfX9-2" value="checkCount&lt;br&gt;++" style="rounded=0;whiteSpace=wrap;fontStyle=1;html=1;strokeWidth=2;fontSize=16;" parent="1" vertex="1">
          <mxGeometry x="-282.4799999999998" y="-982.14" width="103" height="76" as="geometry" />
        </mxCell>
        <mxCell id="Ct8HjF7NkuFXoSBndfX9-3" style="edgeStyle=orthogonalEdgeStyle;rounded=0;orthogonalLoop=1;jettySize=auto;html=1;exitX=0.5;exitY=0;exitDx=0;exitDy=0;entryX=0.5;entryY=1;entryDx=0;entryDy=0;fontStyle=1;strokeWidth=3;" parent="1" source="Ct8HjF7NkuFXoSBndfX9-1" target="Ct8HjF7NkuFXoSBndfX9-2" edge="1">
          <mxGeometry relative="1" as="geometry">
            <mxPoint x="-397" y="-630" as="sourcePoint" />
            <mxPoint x="-447" y="-630" as="targetPoint" />
          </mxGeometry>
        </mxCell>
        <mxCell id="Ct8HjF7NkuFXoSBndfX9-4" style="edgeStyle=orthogonalEdgeStyle;rounded=0;orthogonalLoop=1;jettySize=auto;html=1;exitX=0;exitY=0.5;exitDx=0;exitDy=0;entryX=1;entryY=0.5;entryDx=0;entryDy=0;fontStyle=1;strokeWidth=3;" parent="1" source="mwJyTNDDtB5qL9PiFzt8-3" target="Ct8HjF7NkuFXoSBndfX9-1" edge="1">
          <mxGeometry relative="1" as="geometry">
            <mxPoint x="-357" y="-680" as="sourcePoint" />
            <mxPoint x="-407" y="-680" as="targetPoint" />
          </mxGeometry>
        </mxCell>
        <mxCell id="Ct8HjF7NkuFXoSBndfX9-5" value="CheckCount&lt;br style=&quot;font-size: 14px;&quot;&gt;== 분리Coount" style="rhombus;whiteSpace=wrap;html=1;aspect=fixed;fontStyle=1;strokeWidth=2;fontSize=14;" parent="1" vertex="1">
          <mxGeometry x="-483.7" y="-1008.14" width="134.4" height="128" as="geometry" />
        </mxCell>
        <mxCell id="Ct8HjF7NkuFXoSBndfX9-6" style="edgeStyle=orthogonalEdgeStyle;rounded=0;orthogonalLoop=1;jettySize=auto;html=1;exitX=0;exitY=0.5;exitDx=0;exitDy=0;fontStyle=1;strokeWidth=3;entryX=1;entryY=0.5;entryDx=0;entryDy=0;" parent="1" source="Ct8HjF7NkuFXoSBndfX9-2" target="Ct8HjF7NkuFXoSBndfX9-5" edge="1">
          <mxGeometry relative="1" as="geometry">
            <mxPoint x="-627" y="-940" as="sourcePoint" />
            <mxPoint x="-357" y="-940" as="targetPoint" />
          </mxGeometry>
        </mxCell>
        <mxCell id="Ct8HjF7NkuFXoSBndfX9-8" style="edgeStyle=orthogonalEdgeStyle;rounded=0;orthogonalLoop=1;jettySize=auto;html=1;exitX=0.5;exitY=1;exitDx=0;exitDy=0;entryX=0.5;entryY=0;entryDx=0;entryDy=0;fontStyle=1;strokeWidth=3;strokeColor=#FC2821;" parent="1" source="Ct8HjF7NkuFXoSBndfX9-5" target="mwJyTNDDtB5qL9PiFzt8-7" edge="1">
          <mxGeometry relative="1" as="geometry">
            <mxPoint x="-616.9999999999998" y="-910" as="sourcePoint" />
            <mxPoint x="-816.9999999999998" y="-910" as="targetPoint" />
          </mxGeometry>
        </mxCell>
        <mxCell id="Ct8HjF7NkuFXoSBndfX9-13" style="edgeStyle=orthogonalEdgeStyle;rounded=0;orthogonalLoop=1;jettySize=auto;html=1;exitX=0.5;exitY=1;exitDx=0;exitDy=0;entryX=1;entryY=0.5;entryDx=0;entryDy=0;fontStyle=1;strokeWidth=3;strokeColor=#FC2821;" parent="1" source="mwJyTNDDtB5qL9PiFzt8-7" target="mwJyTNDDtB5qL9PiFzt8-12" edge="1">
          <mxGeometry relative="1" as="geometry">
            <mxPoint x="-266.9999999999998" y="-560" as="sourcePoint" />
            <mxPoint x="-466.9999999999998" y="-560" as="targetPoint" />
          </mxGeometry>
        </mxCell>
        <mxCell id="Ct8HjF7NkuFXoSBndfX9-91" value="Find New &lt;br style=&quot;font-size: 14px;&quot;&gt;Pairing Target" style="rhombus;whiteSpace=wrap;html=1;aspect=fixed;fontStyle=1;strokeWidth=2;fontSize=14;" parent="1" vertex="1">
          <mxGeometry x="-665.5" y="-829.71" width="127.5" height="121.43" as="geometry" />
        </mxCell>
        <mxCell id="Ct8HjF7NkuFXoSBndfX9-94" value="Send CmdType&lt;br&gt;_Alarm" style="rounded=0;whiteSpace=wrap;fontStyle=1;html=1;strokeWidth=2;fontSize=16;" parent="1" vertex="1">
          <mxGeometry x="-806.9999999999998" y="-807" width="103" height="76" as="geometry" />
        </mxCell>
        <mxCell id="Ct8HjF7NkuFXoSBndfX9-95" style="edgeStyle=orthogonalEdgeStyle;rounded=0;orthogonalLoop=1;jettySize=auto;html=1;exitX=0;exitY=0.5;exitDx=0;exitDy=0;fontStyle=1;strokeWidth=3;" parent="1" source="mwJyTNDDtB5qL9PiFzt8-7" edge="1">
          <mxGeometry relative="1" as="geometry">
            <mxPoint x="-947" y="-930" as="sourcePoint" />
            <mxPoint x="-537" y="-770" as="targetPoint" />
          </mxGeometry>
        </mxCell>
        <mxCell id="Ct8HjF7NkuFXoSBndfX9-96" style="edgeStyle=orthogonalEdgeStyle;rounded=0;orthogonalLoop=1;jettySize=auto;html=1;exitX=0.5;exitY=1;exitDx=0;exitDy=0;entryX=0.5;entryY=0;entryDx=0;entryDy=0;fontStyle=1;strokeWidth=3;" parent="1" source="Ct8HjF7NkuFXoSBndfX9-91" target="mwJyTNDDtB5qL9PiFzt8-12" edge="1">
          <mxGeometry relative="1" as="geometry">
            <mxPoint x="-787" y="-670" as="sourcePoint" />
            <mxPoint x="-837" y="-670" as="targetPoint" />
          </mxGeometry>
        </mxCell>
        <mxCell id="Ct8HjF7NkuFXoSBndfX9-97" style="edgeStyle=orthogonalEdgeStyle;rounded=0;orthogonalLoop=1;jettySize=auto;html=1;exitX=0;exitY=0.5;exitDx=0;exitDy=0;entryX=1;entryY=0.5;entryDx=0;entryDy=0;fontStyle=1;strokeWidth=3;strokeColor=#FC2821;" parent="1" source="Ct8HjF7NkuFXoSBndfX9-91" target="Ct8HjF7NkuFXoSBndfX9-94" edge="1">
          <mxGeometry relative="1" as="geometry">
            <mxPoint x="-676.9999999999998" y="-890" as="sourcePoint" />
            <mxPoint x="-876.9999999999998" y="-890" as="targetPoint" />
          </mxGeometry>
        </mxCell>
        <mxCell id="Ct8HjF7NkuFXoSBndfX9-98" style="edgeStyle=orthogonalEdgeStyle;rounded=0;orthogonalLoop=1;jettySize=auto;html=1;exitX=0;exitY=0.5;exitDx=0;exitDy=0;entryX=0.5;entryY=0;entryDx=0;entryDy=0;fontStyle=1;strokeWidth=3;" parent="1" source="Ct8HjF7NkuFXoSBndfX9-5" target="Ct8HjF7NkuFXoSBndfX9-91" edge="1">
          <mxGeometry relative="1" as="geometry">
            <mxPoint x="-647" y="-950" as="sourcePoint" />
            <mxPoint x="-697" y="-950" as="targetPoint" />
          </mxGeometry>
        </mxCell>
        <mxCell id="Ct8HjF7NkuFXoSBndfX9-100" style="edgeStyle=orthogonalEdgeStyle;rounded=0;orthogonalLoop=1;jettySize=auto;html=1;exitX=0.5;exitY=1;exitDx=0;exitDy=0;entryX=0;entryY=0.5;entryDx=0;entryDy=0;fontStyle=1;strokeWidth=3;" parent="1" source="Ct8HjF7NkuFXoSBndfX9-94" target="mwJyTNDDtB5qL9PiFzt8-12" edge="1">
          <mxGeometry relative="1" as="geometry">
            <mxPoint x="-727" y="-640" as="sourcePoint" />
            <mxPoint x="-777" y="-640" as="targetPoint" />
          </mxGeometry>
        </mxCell>
        <mxCell id="Ct8HjF7NkuFXoSBndfX9-101" value="" style="group" parent="1" vertex="1" connectable="0">
          <mxGeometry x="-398" y="-1120" width="110" height="60" as="geometry" />
        </mxCell>
        <mxCell id="VzTFzCelFTvTFUtPNzLl-1" style="edgeStyle=orthogonalEdgeStyle;rounded=0;orthogonalLoop=1;jettySize=auto;html=1;exitX=0;exitY=0.5;exitDx=0;exitDy=0;entryX=1;entryY=0.5;entryDx=0;entryDy=0;fontStyle=1;strokeWidth=3;movable=1;resizable=1;rotatable=1;deletable=1;editable=1;locked=0;connectable=1;" parent="Ct8HjF7NkuFXoSBndfX9-101" edge="1">
          <mxGeometry relative="1" as="geometry">
            <mxPoint x="50" y="14" as="sourcePoint" />
            <mxPoint y="14" as="targetPoint" />
          </mxGeometry>
        </mxCell>
        <mxCell id="VzTFzCelFTvTFUtPNzLl-2" style="edgeStyle=orthogonalEdgeStyle;rounded=0;orthogonalLoop=1;jettySize=auto;html=1;entryX=1;entryY=0.5;entryDx=0;entryDy=0;fontStyle=1;strokeWidth=3;strokeColor=#FC2821;movable=1;resizable=1;rotatable=1;deletable=1;editable=1;locked=0;connectable=1;" parent="Ct8HjF7NkuFXoSBndfX9-101" edge="1">
          <mxGeometry relative="1" as="geometry">
            <mxPoint x="50" y="44" as="sourcePoint" />
            <mxPoint x="2.2737367544323206e-13" y="44" as="targetPoint" />
          </mxGeometry>
        </mxCell>
        <mxCell id="VzTFzCelFTvTFUtPNzLl-4" value="참" style="text;html=1;strokeColor=none;fillColor=none;align=center;verticalAlign=middle;whiteSpace=wrap;rounded=0;fontSize=20;fontStyle=1;movable=1;resizable=1;rotatable=1;deletable=1;editable=1;locked=0;connectable=1;" parent="Ct8HjF7NkuFXoSBndfX9-101" vertex="1">
          <mxGeometry x="50" width="60" height="30" as="geometry" />
        </mxCell>
        <mxCell id="VzTFzCelFTvTFUtPNzLl-5" value="거짓" style="text;html=1;strokeColor=none;fillColor=none;align=center;verticalAlign=middle;whiteSpace=wrap;rounded=0;fontSize=20;fontStyle=1;movable=1;resizable=1;rotatable=1;deletable=1;editable=1;locked=0;connectable=1;" parent="Ct8HjF7NkuFXoSBndfX9-101" vertex="1">
          <mxGeometry x="50" y="30" width="60" height="30" as="geometry" />
        </mxCell>
        <mxCell id="m691B2Pts4ywP40O-uFp-1" style="edgeStyle=orthogonalEdgeStyle;rounded=0;orthogonalLoop=1;jettySize=auto;html=1;exitX=0.5;exitY=1;exitDx=0;exitDy=0;entryX=0.5;entryY=0;entryDx=0;entryDy=0;fontStyle=1;strokeWidth=3;strokeColor=#FC2821;" edge="1" parent="1" source="Ct8HjF7NkuFXoSBndfX9-1" target="m691B2Pts4ywP40O-uFp-2">
          <mxGeometry relative="1" as="geometry">
            <mxPoint x="-209.99999999999977" y="-690" as="sourcePoint" />
            <mxPoint x="-409.9999999999998" y="-690" as="targetPoint" />
          </mxGeometry>
        </mxCell>
        <mxCell id="m691B2Pts4ywP40O-uFp-2" value="checkCount&lt;br&gt;&amp;nbsp;= 0" style="rounded=0;whiteSpace=wrap;fontStyle=1;html=1;strokeWidth=2;fontSize=16;" vertex="1" parent="1">
          <mxGeometry x="-282.4799999999998" y="-660" width="103" height="76" as="geometry" />
        </mxCell>
        <mxCell id="m691B2Pts4ywP40O-uFp-3" style="edgeStyle=orthogonalEdgeStyle;rounded=0;orthogonalLoop=1;jettySize=auto;html=1;exitX=0;exitY=0.5;exitDx=0;exitDy=0;entryX=1;entryY=0.5;entryDx=0;entryDy=0;fontStyle=1;strokeWidth=3;" edge="1" parent="1" source="m691B2Pts4ywP40O-uFp-2" target="mwJyTNDDtB5qL9PiFzt8-7">
          <mxGeometry relative="1" as="geometry">
            <mxPoint x="-540" y="-600" as="sourcePoint" />
            <mxPoint x="-590" y="-600" as="targetPoint" />
            <Array as="points">
              <mxPoint x="-320" y="-622" />
              <mxPoint x="-320" y="-769" />
            </Array>
          </mxGeometry>
        </mxCell>
      </root>
    </mxGraphModel>
  </diagram>
</mxfile>
